<?xml version="1.0" encoding="iso-8859-1"?>
<!-- Uploaded to: SVG Repo, www.svgrepo.com, Generator: SVG Repo Mixer Tools -->
<svg fill="#000000" height="800px" width="800px" version="1.1" id="Capa_1" xmlns="http://www.w3.org/2000/svg" xmlns:xlink="http://www.w3.org/1999/xlink" 
	 viewBox="0 0 60 60" xml:space="preserve">
<path d="M51.748,47.335L44,38.619V30c0.007,0,0.013,0,0.02,0c0.552,0,1-0.448,1-1c0-0.359-0.189-0.673-0.473-0.85l-7.889-6.903
	C36.476,21.088,36.242,21,36,21h-1v-4c0.007,0,0.014,0,0.02,0c0.552,0,1-0.448,1-1c0-0.282-0.117-0.536-0.304-0.718L31,8.679V6h3
	c0.552,0,1-0.448,1-1s-0.448-1-1-1h-3V1c0-0.552-0.448-1-1-1s-1,0.448-1,1v3h-3c-0.552,0-1,0.448-1,1s0.448,1,1,1h3v2.679
	l-4.814,6.74c-0.217,0.305-0.247,0.706-0.075,1.039S24.625,17,25,17v4h-1c-0.242,0-0.476,0.088-0.659,0.248l-8,7
	c-0.313,0.274-0.424,0.714-0.277,1.104C15.21,29.742,15.583,30,16,30v8.619l-7.748,8.716C8.09,47.519,8,47.755,8,48v11
	c0,0.552,0.448,1,1,1h4h9h4h8h4h9h4c0.552,0,1-0.448,1-1V48C52,47.755,51.91,47.519,51.748,47.335z M42,30v8h-3v-3
	c0-2.206-1.794-4-4-4s-4,1.794-4,4v3h-2v-3c0-2.206-1.794-4-4-4s-4,1.794-4,4v3h-3v-8H42z M50,58h-2v-6.5c0-3.033-2.467-5.5-5.5-5.5
	S37,48.467,37,51.5V58h-2V48c0-2.757-2.243-5-5-5s-5,2.243-5,5v10h-2v-6.5c0-3.033-2.467-5.5-5.5-5.5S12,48.467,12,51.5V58h-2v-9.62
	L17.449,40H22h6h4h6h4.551L50,48.38V58z"/>
</svg>