<?xml version="1.0" encoding="iso-8859-1"?>
<!-- Uploaded to: SVG Repo, www.svgrepo.com, Generator: SVG Repo Mixer Tools -->
<svg fill="#000000" height="800px" width="800px" version="1.1" id="Capa_1" xmlns="http://www.w3.org/2000/svg" xmlns:xlink="http://www.w3.org/1999/xlink" 
	 viewBox="0 0 60 60" xml:space="preserve">
<path d="M52.247,19.665c-0.396,0-0.785,0.049-1.162,0.145c-0.403-2.214-2.347-3.897-4.675-3.897c-2.396,0-4.382,1.781-4.707,4.087
	H35v-4.811c2.077-0.517,3.594-2.381,3.594-4.599c0-2.188-1.486-4.036-3.503-4.586c0.11-0.404,0.167-0.824,0.167-1.251
	C35.258,2.132,33.126,0,30.506,0c-2.621,0-4.753,2.132-4.753,4.753c0,0.395,0.049,0.785,0.145,1.162C23.684,6.318,22,8.262,22,10.59
	c0,2.364,1.735,4.331,4,4.693V20h-7.812c-0.516-2.077-2.38-3.594-4.599-3.594c-2.188,0-4.035,1.486-4.585,3.503
	c-0.405-0.11-0.825-0.167-1.252-0.167C5.132,19.742,3,21.874,3,24.495s2.132,4.753,4.753,4.753c0.396,0,0.785-0.049,1.162-0.145
	C9.318,31.316,11.262,33,13.59,33c2.365,0,4.332-1.736,4.693-4H26v15.84c-2.026,0.551-3.506,2.405-3.506,4.569
	c0,2.188,1.486,4.036,3.502,4.586c-0.11,0.405-0.167,0.825-0.167,1.252c0,2.621,2.132,4.752,4.753,4.752s4.753-2.132,4.753-4.752
	c0-0.395-0.049-0.785-0.146-1.162c2.215-0.404,3.898-2.347,3.898-4.676c0-2.395-1.781-4.382-4.088-4.706V29h6.84
	c0.552,2.027,2.406,3.506,4.57,3.506c2.188,0,4.035-1.486,4.585-3.503c0.405,0.11,0.825,0.167,1.252,0.167
	c2.621,0,4.753-2.132,4.753-4.752S54.868,19.665,52.247,19.665z"/>
</svg>